<svg width="23" height="23" viewBox="0 0 23 23" fill="none" xmlns="http://www.w3.org/2000/svg">
<path d="M11.1014 19.9184C8.82796 19.9184 8.55995 19.9065 7.67276 19.868C6.9809 19.8454 6.298 19.7058 5.65346 19.4552C5.1019 19.2422 4.60101 18.9176 4.18258 18.5022C3.76416 18.0868 3.43735 17.5895 3.22291 17.042C2.98014 16.4 2.8492 15.7216 2.83569 15.036C2.78394 14.1573 2.78394 13.8693 2.78394 11.6303C2.78394 9.36752 2.79595 9.10335 2.83569 8.2274C2.84949 7.5427 2.98043 6.86532 3.22291 6.22417C3.4371 5.67597 3.76413 5.17813 4.18311 4.76245C4.60209 4.34677 5.10381 4.02239 5.65623 3.81001C6.30189 3.56805 6.98457 3.43775 7.6746 3.42477C8.55718 3.37524 8.84737 3.37524 11.1014 3.37524C13.3933 3.37524 13.6567 3.38717 14.53 3.42477C15.2213 3.43762 15.907 3.56786 16.554 3.81001C17.1062 4.02263 17.6078 4.34711 18.0268 4.76276C18.4457 5.1784 18.7728 5.67611 18.9873 6.22417C19.234 6.8754 19.3662 7.56332 19.3764 8.25767C19.4281 9.13637 19.4281 9.42347 19.4281 11.6615C19.4281 13.8996 19.4152 14.1931 19.3764 15.0617C19.3625 15.748 19.2313 16.4269 18.9882 17.0695C18.7732 17.6174 18.4458 18.1149 18.0267 18.5305C17.6077 18.9461 17.1061 19.2707 16.554 19.4837C15.907 19.724 15.2241 19.8542 14.5337 19.868C13.6512 19.9184 13.3619 19.9184 11.1014 19.9184ZM11.07 4.82722C8.80948 4.82722 8.57474 4.83823 7.69216 4.87767C7.16507 4.88451 6.64305 4.98099 6.14881 5.16293C5.78833 5.30007 5.46079 5.51066 5.18733 5.78113C4.91386 6.05159 4.70054 6.37593 4.5611 6.73323C4.37627 7.22853 4.27923 7.75227 4.27369 8.2806C4.22471 9.16939 4.22471 9.40237 4.22471 11.6303C4.22471 13.8317 4.23302 14.0986 4.27369 14.9819C4.282 15.5047 4.37904 16.0229 4.5611 16.5137C4.84389 17.2355 5.42057 17.806 6.14974 18.0831C6.64334 18.2661 7.16525 18.3626 7.69216 18.3683C8.58675 18.4197 8.82242 18.4197 11.07 18.4197C13.337 18.4197 13.5717 18.4087 14.4469 18.3683C14.974 18.362 15.4961 18.2655 15.9902 18.0831C16.3488 17.9449 16.6745 17.7341 16.9465 17.4643C17.2186 17.1944 17.4311 16.8713 17.5705 16.5155C17.7554 16.0202 17.8524 15.4955 17.858 14.9672H17.8681C17.9079 14.0903 17.9079 13.8564 17.9079 11.6157C17.9079 9.37486 17.8977 9.13913 17.858 8.26317C17.8496 7.74077 17.7524 7.22352 17.5705 6.73323C17.4314 6.37693 17.2191 6.05329 16.947 5.78293C16.6749 5.51257 16.3491 5.30142 15.9902 5.16293C15.4962 4.98011 14.9741 4.8836 14.4469 4.87767C13.5532 4.82722 13.3194 4.82722 11.07 4.82722ZM11.1014 15.867C10.2563 15.8676 9.43006 15.6194 8.72712 15.1538C8.02418 14.6882 7.47615 14.0262 7.15233 13.2515C6.82851 12.4768 6.74345 11.6241 6.90791 10.8014C7.07237 9.97873 7.47897 9.22291 8.07627 8.62957C8.67358 8.03623 9.43476 7.63203 10.2635 7.46809C11.0923 7.30415 11.9515 7.38783 12.7323 7.70855C13.5132 8.02927 14.1807 8.57262 14.6504 9.26989C15.1201 9.96715 15.3708 10.787 15.371 11.6257C15.3696 12.7495 14.9194 13.8269 14.1191 14.6219C13.3188 15.4169 12.2337 15.8646 11.1014 15.867ZM11.1014 8.87221C10.5531 8.87221 10.017 9.0336 9.56109 9.33596C9.10516 9.63832 8.7498 10.0681 8.53996 10.5709C8.33011 11.0737 8.27521 11.627 8.38218 12.1607C8.48916 12.6945 8.75322 13.1848 9.14096 13.5696C9.5287 13.9545 10.0227 14.2166 10.5605 14.3227C11.0983 14.4289 11.6558 14.3744 12.1624 14.1661C12.669 13.9579 13.102 13.6052 13.4066 13.1527C13.7113 12.7002 13.8739 12.1681 13.8739 11.6239C13.8722 10.8946 13.5795 10.1957 13.06 9.68004C12.5404 9.16436 11.8362 8.87391 11.1014 8.87221ZM15.5374 8.21823C15.4066 8.21774 15.2771 8.19169 15.1564 8.14156C15.0357 8.09142 14.9262 8.01818 14.834 7.92603C14.6479 7.73991 14.5439 7.48802 14.5448 7.22578C14.5458 6.96354 14.6517 6.71243 14.8392 6.52769C15.0268 6.34294 15.2806 6.2397 15.5448 6.24068C15.809 6.24165 16.062 6.34676 16.2481 6.53288C16.4343 6.71899 16.5383 6.97088 16.5373 7.23312C16.5363 7.49536 16.4304 7.74647 16.2429 7.93122C16.0554 8.11596 15.8016 8.2192 15.5374 8.21823Z" fill="#050A30"/>
</svg>
