<svg width="19" height="18" viewBox="0 0 19 18" fill="none" xmlns="http://www.w3.org/2000/svg">
<path fill-rule="evenodd" clip-rule="evenodd" d="M15.4857 2.61567C13.7939 0.929788 11.5437 0.000878119 9.14622 0C4.20598 0 0.18534 4.00092 0.18361 8.91874C0.182763 10.4909 0.595741 12.0253 1.38001 13.3777L0.108398 18L4.8596 16.7597C6.16855 17.4706 7.64254 17.8447 9.14237 17.8452H9.14622C14.0856 17.8452 18.1067 13.8439 18.1084 8.92601C18.1092 6.54262 17.178 4.30201 15.4857 2.61609V2.61567ZM9.14622 16.3389H9.14322C7.8067 16.3385 6.49559 15.9809 5.35163 15.3057L5.07962 15.1449L2.26011 15.8809L3.01258 13.145L2.83551 12.8645C2.08992 11.6841 1.69586 10.3198 1.69671 8.9192C1.69844 4.83187 5.04009 1.50626 9.14925 1.50626C11.1389 1.50713 13.0092 2.27911 14.4156 3.68058C15.8222 5.08164 16.5961 6.94462 16.5953 8.92517C16.5935 13.0129 13.252 16.3385 9.14622 16.3385V16.3389ZM13.2322 10.7869C13.0082 10.6752 11.9073 10.1363 11.7019 10.0619C11.4965 9.98748 11.3474 9.95032 11.1982 10.1735C11.0491 10.3968 10.6198 10.8989 10.4892 11.0473C10.3585 11.1961 10.2279 11.2145 10.004 11.1029C9.7801 10.9912 9.05855 10.756 8.20294 9.99689C7.5373 9.40585 7.08775 8.67627 6.95716 8.45299C6.82651 8.22977 6.9434 8.10915 7.05511 7.99837C7.15566 7.89833 7.27901 7.73795 7.39118 7.60792C7.50334 7.47789 7.5403 7.3847 7.61505 7.23626C7.68987 7.0874 7.65246 6.95748 7.59662 6.84578C7.54072 6.73419 7.09294 5.63717 6.90599 5.19112C6.72419 4.75663 6.53946 4.81564 6.40238 4.80837C6.27168 4.80194 6.1226 4.80068 5.97306 4.80068C5.82352 4.80068 5.58112 4.85624 5.3757 5.07953C5.17029 5.30272 4.59185 5.84206 4.59185 6.93858C4.59185 8.03518 5.3942 9.09542 5.50636 9.24424C5.61849 9.39306 7.0856 11.6439 9.33186 12.6096C9.86604 12.8393 10.2833 12.9765 10.6086 13.0792C11.145 13.249 11.6331 13.225 12.019 13.1677C12.4492 13.1036 13.3439 12.6284 13.5304 12.1079C13.7169 11.5874 13.7169 11.1409 13.661 11.0481C13.6052 10.9553 13.4557 10.8993 13.2318 10.7877L13.2322 10.7869Z" fill="#050A30"/>
</svg>
