<svg width="80" height="81" viewBox="0 0 80 81" fill="none" xmlns="http://www.w3.org/2000/svg">
<path d="M44.6429 9.78375C51.445 10.7674 57.5363 13.8862 62.1769 18.4214C66.8189 22.9565 70.0103 28.9093 71.0168 35.5569H66.7034C65.7368 30.0596 63.0335 25.1415 59.167 21.3628C55.3005 17.5842 50.268 14.9437 44.6429 13.9977V9.78375ZM31.0112 28.6675C35.2585 23.5384 40.1535 20.7487 43.8303 25.3108C48.0529 25.5285 49.8652 31.7944 46.9584 34.885C47.1674 34.8823 47.3627 34.924 47.5332 35.014C47.7545 35.1322 47.9223 35.3244 48.0075 35.5985C48.0928 35.8659 48.0928 36.214 47.9732 36.6453L47.9539 36.7004C47.9044 36.8455 47.859 37.0363 47.8123 37.2325C47.6184 38.0576 47.4039 38.9646 46.4414 38.9149L46.2888 38.8988C46.253 40.604 45.4005 41.3901 44.284 42.414C44.5838 42.8413 44.8835 43.2713 45.2424 43.6691L45.2438 43.6664C47.1303 45.3273 51.9937 45.6592 54.0727 46.7933C54.7299 47.1507 55.3239 47.6063 55.801 48.2231C56.9959 49.7657 57.1898 50.9777 57.429 52.8388C57.4607 52.9652 57.4785 53.0942 57.4785 53.2245C57.4785 53.4812 57.2654 53.6894 57.0042 53.6894H23.0389C22.7777 53.6894 22.5645 53.4812 22.5645 53.2245C22.5645 53.0928 22.5838 52.9611 22.6154 52.8335C22.856 50.9764 23.0485 49.763 24.242 48.2231C24.7205 47.6063 25.3145 47.1507 25.9704 46.7933C27.9834 45.6955 32.5622 45.3488 34.6095 43.8209C34.7374 43.6086 34.8694 43.3399 34.9973 43.055C35.1623 42.6855 35.319 42.2904 35.4469 41.9491C34.6357 41.2141 34.0114 40.4186 33.8712 38.9042L33.7735 38.9068C33.548 38.9042 33.3308 38.8531 33.1287 38.7402C32.6818 38.4916 32.437 38.0159 32.3174 37.4731C32.1675 36.7851 32.2184 35.9681 32.2899 35.4521L32.3188 35.3513C32.4755 34.9226 32.6722 34.6915 32.9197 34.5934C32.8069 32.5455 33.1617 29.3031 31.0112 28.6675ZM43.7519 42.9072C42.6478 43.9123 41.4447 44.4001 40.2237 44.4014C38.9463 44.4014 37.6648 43.8666 36.474 42.8306L36.0547 42.4718L36.0272 42.4503C35.9172 42.7379 35.792 43.0442 35.66 43.3385C35.4813 43.7363 35.2902 44.1098 35.1045 44.3826C37.1093 48.3547 43.0355 48.4932 44.9564 44.4055C44.4738 43.9271 44.108 43.4165 43.7519 42.9072ZM43.2597 29.1526C42.293 30.1053 41.2687 30.3794 40.2649 30.4654C39.9679 30.5178 39.6778 30.5527 39.389 30.5877C38.4265 30.7032 37.464 30.8202 36.1894 31.6815C35.583 32.0913 35.1802 32.5872 34.9753 33.1637C34.7663 33.7482 34.7539 34.4335 34.9285 35.2115C34.945 35.2854 34.9409 35.3661 34.912 35.4427C34.893 35.4934 34.8639 35.54 34.8265 35.5798C34.789 35.6195 34.7439 35.6517 34.6937 35.6744C34.6435 35.6971 34.5893 35.7099 34.534 35.7121C34.4787 35.7143 34.4236 35.7059 34.3717 35.6872L33.8808 35.5112C33.4848 35.3768 33.2373 35.3338 33.119 35.6093C33.0585 36.0594 33.02 36.7421 33.1424 37.3037C33.2153 37.6343 33.3404 37.9111 33.5453 38.0253C33.6182 38.0657 33.6993 38.0845 33.7832 38.0845C33.8904 38.0858 34.0114 38.063 34.1407 38.0253L34.2534 38.0079C34.3648 38.0053 34.4727 38.046 34.5533 38.1211C34.634 38.1962 34.6809 38.2995 34.6838 38.4083C34.7292 40.2707 35.5762 40.9843 36.6047 41.851L37.035 42.2165C38.069 43.1155 39.1594 43.5791 40.2237 43.5791C41.2604 43.5791 42.2985 43.1356 43.2665 42.2232L43.7024 41.8187C44.7818 40.8271 45.5779 40.0974 45.4253 38.3183C45.417 38.2282 45.439 38.1369 45.494 38.0576C45.6219 37.8681 45.8832 37.8157 46.077 37.9407C46.154 37.9904 46.2297 38.0294 46.3039 38.0549C46.3658 38.0777 46.4277 38.0912 46.484 38.0939C46.7412 38.1073 46.8732 37.5523 46.9914 37.0498C47.0423 36.8334 47.0918 36.6252 47.1578 36.433C47.2348 36.1575 47.243 35.964 47.2032 35.8391C47.188 35.788 47.1605 35.7531 47.1289 35.7356C47.0794 35.7101 47.0038 35.702 46.9144 35.7087C46.7054 35.7275 46.4565 35.8323 46.2228 36.0003C46.1307 36.0796 46.0042 36.1186 45.8735 36.0971C45.7636 36.0781 45.6658 36.0175 45.6014 35.9284C45.537 35.8393 45.5113 35.7289 45.5298 35.6214C45.9272 33.3585 45.7457 31.8831 45.252 30.8766C44.8203 29.9964 44.13 29.4616 43.382 29.0625L43.2597 29.1526ZM42.0744 18.3246H37.9687V5.67322H42.0744V18.3246ZM62.2759 42.0794V38.067H75.2215V42.0794H62.2759ZM4.82153 42.0794V38.067H17.7672V42.0794H4.82153ZM42.0744 74.4732H37.9687V61.8218H42.0744V74.4732ZM71.0168 44.5896C70.0103 51.2371 66.8189 57.1899 62.1769 61.7251C57.5363 66.2616 51.445 69.3804 44.6429 70.364V66.1487C50.268 65.204 55.3005 62.5622 59.167 58.7836C63.0335 55.005 65.7368 50.0868 66.7034 44.5896H71.0168ZM35.4002 70.364C28.598 69.3804 22.5068 66.2616 17.8662 61.7251C13.2255 57.1899 10.0342 51.2371 9.02766 44.5896H13.3397C14.3077 50.0868 17.0095 55.005 20.876 58.7836C24.7425 62.5622 29.775 65.204 35.4002 66.1487V70.364ZM9.02766 35.5569C10.0342 28.9093 13.2255 22.9565 17.8662 18.4214C22.5068 13.8862 28.598 10.7674 35.4002 9.78375V13.9977C29.775 14.9437 24.7425 17.5842 20.876 21.3628C17.0095 25.1415 14.3077 30.0596 13.3397 35.5569H9.02766Z" fill="#CDAD7D"/>
</svg>
