<svg width="25" height="24" viewBox="0 0 25 24" fill="none" xmlns="http://www.w3.org/2000/svg">
<path d="M20.5062 4.5H4.8639C4.133 4.50198 3.4326 4.79103 2.91577 5.30398C2.39894 5.81693 2.10771 6.51208 2.10571 7.2375V16.7625C2.10771 17.4879 2.39894 18.1831 2.91577 18.696C3.4326 19.209 4.133 19.498 4.8639 19.5H20.5062C21.2371 19.498 21.9375 19.209 22.4543 18.696C22.9712 18.1831 23.2624 17.4879 23.2644 16.7625V7.2375C23.2624 6.51208 22.9712 5.81693 22.4543 5.30398C21.9375 4.79103 21.2371 4.50198 20.5062 4.5ZM21.7531 16.7625C21.7531 17.0907 21.6217 17.4055 21.3879 17.6375C21.154 17.8696 20.8369 18 20.5062 18H4.8639C4.53321 18 4.21607 17.8696 3.98224 17.6375C3.74841 17.4055 3.61705 17.0907 3.61705 16.7625V7.2375C3.61705 6.90929 3.74841 6.59453 3.98224 6.36246C4.21607 6.13038 4.53321 6 4.8639 6H20.5062C20.8369 6 21.154 6.13038 21.3879 6.36246C21.6217 6.59453 21.7531 6.90929 21.7531 7.2375V16.7625Z" fill="#CAC4DB"/>
<path d="M19.8564 7.77772L12.6851 12.0452L5.51384 7.77772C5.42833 7.716 5.33072 7.67277 5.22732 7.65084C5.12392 7.62891 5.01703 7.62876 4.91357 7.6504C4.81011 7.67203 4.71237 7.71498 4.62668 7.77646C4.54099 7.83794 4.46925 7.91659 4.41611 8.00731C4.36296 8.09804 4.32959 8.19882 4.31816 8.30314C4.30672 8.40747 4.31747 8.51302 4.34971 8.61296C4.38195 8.71291 4.43496 8.80503 4.50532 8.88336C4.57568 8.96169 4.66182 9.0245 4.75818 9.06772L12.3149 13.5677C12.4297 13.6335 12.56 13.6682 12.6927 13.6682C12.8253 13.6682 12.9556 13.6335 13.0705 13.5677L20.6272 9.06772C20.7785 8.95852 20.8836 8.7975 20.9222 8.61582C20.9607 8.43413 20.93 8.24471 20.836 8.0842C20.742 7.92369 20.5913 7.80349 20.4132 7.74688C20.235 7.69026 20.042 7.70125 19.8715 7.77772H19.8564Z" fill="#CDAD7D"/>
</svg>
