<svg width="80" height="81" viewBox="0 0 80 81" fill="none" xmlns="http://www.w3.org/2000/svg">
<path d="M49.6659 57.6793H29.8688C29.3929 57.6793 28.9365 57.4903 28.6 57.1538C28.2635 56.8173 28.0744 56.3609 28.0744 55.885V54.7965C28.0729 53.0981 27.4809 51.4531 26.3998 50.1432L25.8256 49.6767C22.3694 46.7734 19.8877 42.8792 18.7158 38.5202C17.5438 34.1612 17.7381 29.5476 19.2724 25.3025C20.8067 21.0575 23.607 17.3858 27.2951 14.7833C30.9831 12.1809 35.3811 10.7732 39.8948 10.7505C44.4085 10.7278 48.8205 12.0912 52.5345 14.6563C56.2485 17.2215 59.0857 20.8649 60.6626 25.0943C62.2395 29.3237 62.4802 33.9351 61.3522 38.3057C60.2242 42.6763 57.7818 46.5953 54.355 49.5332L53.6014 50.1313C52.2711 51.4944 51.5245 53.3224 51.52 55.2271V55.8491C51.525 56.0929 51.4803 56.3351 51.3886 56.561C51.2969 56.7869 51.1601 56.9917 50.9866 57.163C50.8131 57.3343 50.6065 57.4684 50.3794 57.5572C50.1523 57.6459 49.9096 57.6875 49.6659 57.6793ZM31.6272 54.0907H47.9314C48.2226 51.6412 49.3309 49.3613 51.0774 47.6193L51.209 47.4996L52.0105 46.8537C54.8731 44.395 56.9128 41.1175 57.8543 37.4633C58.7959 33.809 58.594 29.954 57.2759 26.4181C55.9578 22.8822 53.587 19.8356 50.4832 17.6894C47.3794 15.5432 43.692 14.4005 39.9185 14.4156C36.145 14.4307 32.4668 15.6028 29.3803 17.7738C26.2938 19.9448 23.9474 23.0102 22.6576 26.5566C21.3679 30.1029 21.1969 33.9594 22.1676 37.606C23.1384 41.2526 25.2042 44.5137 28.0864 46.9494L28.7682 47.4996C28.864 47.5704 28.9487 47.6551 29.0194 47.7508L29.1391 47.8824C30.5994 49.6395 31.4699 51.8115 31.6272 54.0907Z" fill="#CDAD7D"/>
<path d="M36.9571 44.0731L36.5113 40.4891C36.2699 40.3958 36.0423 40.2838 35.8287 40.1531C35.6151 40.0224 35.4062 39.8824 35.2019 39.7331L31.8865 41.1331L28.8218 35.8131L31.6914 33.6291C31.6729 33.4984 31.6636 33.3724 31.6636 33.2511V32.4951C31.6636 32.3738 31.6729 32.2478 31.6914 32.1171L28.8218 29.9331L31.8865 24.6131L35.2019 26.0131C35.4062 25.8638 35.6198 25.7238 35.8427 25.5931C36.0656 25.4624 36.2884 25.3504 36.5113 25.2571L36.9571 21.6731H43.0865L43.5322 25.2571C43.7737 25.3504 44.0012 25.4624 44.2148 25.5931C44.4284 25.7238 44.6374 25.8638 44.8417 26.0131L48.1571 24.6131L51.2218 29.9331L48.3521 32.1171C48.3707 32.2478 48.38 32.3738 48.38 32.4951V33.2511C48.38 33.3724 48.3614 33.4984 48.3243 33.6291L51.1939 35.8131L48.1292 41.1331L44.8417 39.7331C44.6374 39.8824 44.4238 40.0224 44.2009 40.1531C43.978 40.2838 43.7551 40.3958 43.5322 40.4891L43.0865 44.0731H36.9571ZM38.9073 41.8331H41.1083L41.4984 38.8651C42.0742 38.7158 42.6082 38.4964 43.1004 38.2071C43.5926 37.9178 44.043 37.5678 44.4516 37.1571L47.2098 38.3051L48.2964 36.4011L45.9004 34.5811C45.9933 34.3198 46.0583 34.0444 46.0954 33.7551C46.1326 33.4658 46.1511 33.1718 46.1511 32.8731C46.1511 32.5744 46.1326 32.2804 46.0954 31.9911C46.0583 31.7018 45.9933 31.4264 45.9004 31.1651L48.2964 29.3451L47.2098 27.4411L44.4516 28.6171C44.043 28.1878 43.5926 27.8284 43.1004 27.5391C42.6082 27.2498 42.0742 27.0304 41.4984 26.8811L41.1362 23.9131H38.9352L38.5452 26.8811C37.9694 27.0304 37.4354 27.2498 36.9432 27.5391C36.451 27.8284 36.0006 28.1784 35.5919 28.5891L32.8337 27.4411L31.7472 29.3451L34.1432 31.1371C34.0503 31.4171 33.9853 31.6971 33.9481 31.9771C33.911 32.2571 33.8924 32.5558 33.8924 32.8731C33.8924 33.1718 33.911 33.4611 33.9481 33.7411C33.9853 34.0211 34.0503 34.3011 34.1432 34.5811L31.7472 36.4011L32.8337 38.3051L35.5919 37.1291C36.0006 37.5584 36.451 37.9178 36.9432 38.2071C37.4354 38.4964 37.9694 38.7158 38.5452 38.8651L38.9073 41.8331ZM40.0775 36.7931C41.1548 36.7931 42.0742 36.4104 42.8357 35.6451C43.5972 34.8798 43.978 33.9558 43.978 32.8731C43.978 31.7904 43.5972 30.8664 42.8357 30.1011C42.0742 29.3358 41.1548 28.9531 40.0775 28.9531C38.9816 28.9531 38.0576 29.3358 37.3054 30.1011C36.5531 30.8664 36.177 31.7904 36.177 32.8731C36.177 33.9558 36.5531 34.8798 37.3054 35.6451C38.0576 36.4104 38.9816 36.7931 40.0775 36.7931Z" fill="#CDAD7D"/>
<path d="M49.8441 64.1509H30.1547C29.6788 64.1509 29.2224 63.9618 28.8859 63.6253C28.5494 63.2888 28.3604 62.8324 28.3604 62.3566C28.3604 61.8807 28.5494 61.4243 28.8859 61.0878C29.2224 60.7513 29.6788 60.5623 30.1547 60.5623H49.8441C50.32 60.5623 50.7764 60.7513 51.1129 61.0878C51.4494 61.4243 51.6384 61.8807 51.6384 62.3566C51.6384 62.8324 51.4494 63.2888 51.1129 63.6253C50.7764 63.9618 50.32 64.1509 49.8441 64.1509Z" fill="#CDAD7D"/>
<path d="M49.8441 70.9573H30.1547C29.6788 70.9573 29.2224 70.7682 28.8859 70.4317C28.5494 70.0952 28.3604 69.6388 28.3604 69.163C28.3604 68.6871 28.5494 68.2307 28.8859 67.8942C29.2224 67.5577 29.6788 67.3687 30.1547 67.3687H49.8441C50.32 67.3687 50.7764 67.5577 51.1129 67.8942C51.4494 68.2307 51.6384 68.6871 51.6384 69.163C51.6384 69.6388 51.4494 70.0952 51.1129 70.4317C50.7764 70.7682 50.32 70.9573 49.8441 70.9573Z" fill="#CDAD7D"/>
<path d="M40 77.7755C38.0584 77.7755 36.1963 77.0042 34.8234 75.6313C33.4505 74.2584 32.6792 72.3963 32.6792 70.4547V69.1509C32.6792 68.675 32.8682 68.2186 33.2047 67.8821C33.5412 67.5456 33.9976 67.3566 34.4735 67.3566H45.5264C46.0023 67.3566 46.4587 67.5456 46.7952 67.8821C47.1317 68.2186 47.3207 68.675 47.3207 69.1509V70.4428C47.3223 71.4052 47.1341 72.3584 46.7669 73.248C46.3997 74.1376 45.8607 74.946 45.1808 75.6271C44.5008 76.3081 43.6932 76.8484 42.8043 77.2171C41.9153 77.5857 40.9623 77.7755 40 77.7755ZM36.3037 70.9571C36.4283 71.8489 36.871 72.6655 37.5503 73.2565C38.2295 73.8475 39.0996 74.173 40 74.173C40.9003 74.173 41.7704 73.8475 42.4497 73.2565C43.1289 72.6655 43.5717 71.8489 43.6962 70.9571H36.3037Z" fill="#CDAD7D"/>
<path d="M39.9994 9.47244C39.5235 9.47244 39.0671 9.2834 38.7306 8.9469C38.3941 8.6104 38.2051 8.15402 38.2051 7.67814V4.90295C38.2051 4.42707 38.3941 3.97068 38.7306 3.63418C39.0671 3.29768 39.5235 3.10864 39.9994 3.10864C40.4753 3.10864 40.9317 3.29768 41.2681 3.63418C41.6046 3.97068 41.7937 4.42707 41.7937 4.90295V7.67814C41.7937 8.15402 41.6046 8.6104 41.2681 8.9469C40.9317 9.2834 40.4753 9.47244 39.9994 9.47244Z" fill="#CDAD7D"/>
<path d="M14.88 34.6765H12.1049C11.629 34.6765 11.1726 34.4875 10.8361 34.151C10.4996 33.8145 10.3105 33.3581 10.3105 32.8822C10.3105 32.4063 10.4996 31.9499 10.8361 31.6134C11.1726 31.2769 11.629 31.0879 12.1049 31.0879H14.88C15.3559 31.0879 15.8123 31.2769 16.1488 31.6134C16.4853 31.9499 16.6743 32.4063 16.6743 32.8822C16.6743 33.3581 16.4853 33.8145 16.1488 34.151C15.8123 34.4875 15.3559 34.6765 14.88 34.6765Z" fill="#CDAD7D"/>
<path d="M67.8964 34.6765H65.1212C64.6453 34.6765 64.1889 34.4875 63.8524 34.151C63.5159 33.8145 63.3269 33.3581 63.3269 32.8822C63.3269 32.4063 63.5159 31.9499 63.8524 31.6134C64.1889 31.2769 64.6453 31.0879 65.1212 31.0879H67.8964C68.3723 31.0879 68.8287 31.2769 69.1652 31.6134C69.5017 31.9499 69.6907 32.4063 69.6907 32.8822C69.6907 33.3581 69.5017 33.8145 69.1652 34.151C68.8287 34.4875 68.3723 34.6765 67.8964 34.6765Z" fill="#CDAD7D"/>
<path d="M22.2377 16.9128C21.7642 16.913 21.3093 16.7285 20.9697 16.3985L19.0079 14.4247C18.691 14.0846 18.5184 13.6347 18.5266 13.1699C18.5348 12.705 18.7232 12.2615 19.0519 11.9328C19.3807 11.604 19.8242 11.4157 20.289 11.4075C20.7539 11.3993 21.2037 11.5719 21.5439 11.8888L23.5057 13.8506C23.6735 14.0163 23.8067 14.2138 23.8976 14.4315C23.9886 14.6491 24.0354 14.8827 24.0354 15.1185C24.0354 15.3544 23.9886 15.588 23.8976 15.8056C23.8067 16.0233 23.6735 16.2207 23.5057 16.3865C23.3412 16.5559 23.144 16.69 22.926 16.7805C22.7079 16.871 22.4737 16.916 22.2377 16.9128Z" fill="#CDAD7D"/>
<path d="M59.7252 54.4018C59.2497 54.4001 58.7941 54.2109 58.4572 53.8754L56.4954 51.9137C56.3191 51.7494 56.1777 51.5513 56.0796 51.3312C55.9816 51.1111 55.9288 50.8735 55.9246 50.6326C55.9203 50.3917 55.9647 50.1524 56.0549 49.9289C56.1451 49.7055 56.2795 49.5026 56.4499 49.3322C56.6202 49.1618 56.8232 49.0275 57.0466 48.9372C57.27 48.847 57.5094 48.8027 57.7503 48.8069C57.9912 48.8112 58.2288 48.8639 58.4489 48.962C58.669 49.06 58.8671 49.2014 59.0314 49.3777L60.9931 51.3395C61.1609 51.5053 61.2942 51.7027 61.3851 51.9204C61.476 52.138 61.5229 52.3716 61.5229 52.6075C61.5229 52.8434 61.476 53.0769 61.3851 53.2946C61.2942 53.5122 61.1609 53.7097 60.9931 53.8754C60.6562 54.2109 60.2006 54.4001 59.7252 54.4018Z" fill="#CDAD7D"/>
<path d="M57.764 16.9128C57.528 16.916 57.2938 16.871 57.0758 16.7805C56.8577 16.69 56.6605 16.5559 56.4961 16.3865C56.3282 16.2207 56.195 16.0233 56.1041 15.8056C56.0131 15.588 55.9663 15.3544 55.9663 15.1185C55.9663 14.8827 56.0131 14.6491 56.1041 14.4315C56.195 14.2138 56.3282 14.0163 56.4961 13.8506L58.4578 11.8888C58.798 11.5719 59.2479 11.3993 59.7127 11.4075C60.1776 11.4157 60.6211 11.604 60.9498 11.9328C61.2786 12.2615 61.4669 12.705 61.4751 13.1699C61.4833 13.6347 61.3107 14.0846 60.9938 14.4247L59.032 16.3985C58.6925 16.7285 58.2375 16.913 57.764 16.9128Z" fill="#CDAD7D"/>
<path d="M20.2753 54.4017C19.7998 54.4 19.3442 54.2109 19.0073 53.8754C18.8395 53.7096 18.7062 53.5122 18.6153 53.2945C18.5244 53.0769 18.4775 52.8433 18.4775 52.6074C18.4775 52.3715 18.5244 52.138 18.6153 51.9203C18.7062 51.7027 18.8395 51.5052 19.0073 51.3395L20.9691 49.3777C21.3092 49.0607 21.7591 48.8882 22.2239 48.8964C22.6888 48.9046 23.1323 49.0929 23.461 49.4217C23.7898 49.7504 23.9781 50.1939 23.9863 50.6588C23.9945 51.1236 23.822 51.5735 23.505 51.9136L21.5432 53.8754C21.2063 54.2109 20.7507 54.4 20.2753 54.4017Z" fill="#CDAD7D"/>
</svg>
