<svg width="80" height="81" viewBox="0 0 80 81" fill="none" xmlns="http://www.w3.org/2000/svg">
<mask id="mask0_143_1278" style="mask-type:alpha" maskUnits="userSpaceOnUse" x="0" y="0" width="80" height="81">
<rect y="0.442017" width="80" height="80" fill="#D9D9D9"/>
</mask>
<g mask="url(#mask0_143_1278)">
<path d="M39.0067 66.9802C39.4422 66.9802 39.8886 66.8819 40.3458 66.6852C40.8031 66.4891 41.1728 66.25 41.455 65.9677L67.4425 39.9802C68.2797 39.143 68.9261 38.2863 69.3817 37.4102C69.8367 36.5341 70.0642 35.5725 70.0642 34.5252C70.0642 33.4652 69.8367 32.4363 69.3817 31.4386C68.9261 30.4408 68.2797 29.5294 67.4425 28.7044L54.9425 16.2044C54.1175 15.3672 53.2703 14.753 52.4008 14.3619C51.5308 13.9708 50.5661 13.7752 49.5067 13.7752C48.4595 13.7752 47.4872 13.9708 46.59 14.3619C45.6922 14.753 44.8461 15.3672 44.0517 16.2044L41.1475 19.1086L47.3142 25.2944C47.9764 25.9438 48.47 26.6833 48.795 27.5127C49.1195 28.3416 49.2817 29.1833 49.2817 30.0377C49.2817 31.7733 48.7145 33.2083 47.58 34.3427C46.4456 35.4772 45.0108 36.0444 43.2758 36.0444C42.4208 36.0444 41.5864 35.9141 40.7725 35.6536C39.9586 35.393 39.2267 34.9377 38.5767 34.2877L32.1983 27.9294L17.8075 42.3202C17.4703 42.658 17.2172 43.0416 17.0484 43.4711C16.8795 43.9005 16.795 44.333 16.795 44.7686C16.795 45.5552 17.0472 46.2038 17.5517 46.7144C18.0556 47.225 18.7009 47.4802 19.4875 47.4802C19.9231 47.4802 20.3695 47.3819 20.8267 47.1852C21.2839 46.9891 21.6536 46.75 21.9359 46.4677L32.5 35.9036L34.8592 38.2627L24.3142 48.8269C23.9764 49.1641 23.7231 49.5475 23.5542 49.9769C23.3859 50.4063 23.3017 50.8391 23.3017 51.2752C23.3017 52.0191 23.5645 52.6538 24.09 53.1794C24.6156 53.705 25.25 53.9677 25.9934 53.9677C26.4295 53.9677 26.8761 53.8694 27.3334 53.6727C27.7906 53.4761 28.1603 53.2366 28.4425 52.9544L39.7758 41.6411L42.135 43.9994L30.8208 55.3327C30.5258 55.615 30.2833 55.9847 30.0933 56.4419C29.9028 56.8991 29.8075 57.3458 29.8075 57.7819C29.8075 58.5252 30.0703 59.1597 30.5958 59.6852C31.122 60.2113 31.7567 60.4744 32.5 60.4744C32.9361 60.4744 33.3689 60.39 33.7983 60.2211C34.2278 60.0522 34.6111 59.7988 34.9483 59.4611L46.2817 48.1469L48.6408 50.5061L37.3075 61.8394C36.9703 62.1772 36.7172 62.5822 36.5483 63.0544C36.3795 63.5266 36.295 63.9591 36.295 64.3519C36.295 65.1386 36.5717 65.7733 37.125 66.2561C37.6783 66.7388 38.3056 66.9802 39.0067 66.9802ZM38.9875 70.3136C37.2736 70.3136 35.8067 69.6866 34.5867 68.4327C33.3667 67.1783 32.8314 65.63 32.9808 63.7877C31.092 63.8094 29.5192 63.2455 28.2625 62.0961C27.0064 60.9461 26.4103 59.3413 26.4742 57.2819C24.4147 57.303 22.792 56.7144 21.6059 55.5161C20.4197 54.3172 19.8803 52.7369 19.9875 50.7752C18.1325 50.7969 16.5811 50.2755 15.3334 49.2111C14.0856 48.1472 13.4617 46.6663 13.4617 44.7686C13.4617 43.9141 13.6272 43.0586 13.9584 42.2019C14.2895 41.3447 14.7797 40.5913 15.4292 39.9419L32.1983 23.1919L40.8075 31.8011C41.0897 32.0961 41.4381 32.3386 41.8525 32.5286C42.267 32.7186 42.735 32.8136 43.2567 32.8136C43.97 32.8136 44.6003 32.5647 45.1475 32.0669C45.6947 31.5691 45.9683 30.9205 45.9683 30.1211C45.9683 29.6 45.8731 29.1322 45.6825 28.7177C45.4925 28.3033 45.25 27.955 44.955 27.6727L33.4875 16.2044C32.6625 15.3672 31.8045 14.753 30.9133 14.3619C30.0222 13.9708 29.047 13.7752 27.9875 13.7752C26.9403 13.7752 25.9895 13.9708 25.135 14.3619C24.28 14.753 23.4336 15.3672 22.5959 16.2044L12.4484 26.3711C11.735 27.085 11.1584 27.9355 10.7184 28.9227C10.2778 29.91 10.0447 30.9291 10.0192 31.9802C9.99363 32.7325 10.0578 33.4558 10.2117 34.1502C10.3656 34.8447 10.6092 35.4975 10.9425 36.1086L8.41669 38.6344C7.85669 37.7411 7.41863 36.7122 7.10252 35.5477C6.78641 34.3833 6.64113 33.1941 6.66669 31.9802C6.69224 30.4675 6.99557 29.0177 7.57669 27.6311C8.1578 26.2444 8.98919 25.0105 10.0709 23.9294L20.1542 13.8461C21.3164 12.6961 22.5461 11.8413 23.8433 11.2819C25.14 10.7219 26.5428 10.4419 28.0517 10.4419C29.56 10.4419 30.952 10.7219 32.2275 11.2819C33.5031 11.8413 34.7156 12.6961 35.865 13.8461L38.7692 16.7494L41.6733 13.8461C42.8356 12.6961 44.0545 11.8413 45.33 11.2819C46.6056 10.7219 47.9978 10.4419 49.5067 10.4419C51.015 10.4419 52.4178 10.7219 53.715 11.2819C55.0117 11.8413 56.235 12.6961 57.385 13.8461L69.8017 26.2627C70.9511 27.4122 71.8378 28.7027 72.4617 30.1344C73.0856 31.5661 73.3975 33.0361 73.3975 34.5444C73.3975 36.0533 73.0856 37.4455 72.4617 38.7211C71.8378 39.9966 70.9511 41.2091 69.8017 42.3586L43.8142 68.3269C43.122 69.0191 42.3686 69.5233 41.5542 69.8394C40.7403 70.1555 39.8847 70.3136 38.9875 70.3136Z" fill="#CDAD7D"/>
</g>
</svg>
