<svg width="25" height="24" viewBox="0 0 25 24" fill="none" xmlns="http://www.w3.org/2000/svg">
<path d="M12.0908 13C13.7602 13 15.1135 11.6569 15.1135 10C15.1135 8.34315 13.7602 7 12.0908 7C10.4214 7 9.06812 8.34315 9.06812 10C9.06812 11.6569 10.4214 13 12.0908 13Z" fill="#CDAD7D"/>
<path d="M12.0907 2C9.95296 2 7.90275 2.84285 6.39113 4.34315C4.8795 5.84344 4.03027 7.87827 4.03027 10C4.03027 11.892 4.43531 13.13 5.54161 14.5L12.0907 22L18.6398 14.5C19.7461 13.13 20.1512 11.892 20.1512 10C20.1512 7.87827 19.302 5.84344 17.7903 4.34315C16.2787 2.84285 14.2285 2 12.0907 2Z" stroke="white" stroke-width="2" stroke-linecap="round" stroke-linejoin="round"/>
</svg>
