<svg width="70" height="60" viewBox="0 0 70 60" fill="none" xmlns="http://www.w3.org/2000/svg">
<path opacity="0.1" d="M32.2852 0V21.7304C32.2852 31.7333 29.5948 40.0116 24.2139 46.5652C18.6178 53.1188 10.5465 57.4304 0 59.5V50.4457C6.45705 49.0659 11.0846 46.479 13.8827 42.6848C16.6807 39.063 18.295 34.3203 18.7254 28.4565H6.45705V0H32.2852ZM70 0V21.7304C70 31.7333 67.3096 40.0116 61.9287 46.5652C56.3326 53.1188 48.2613 57.4304 37.7148 59.5V50.4457C44.1718 49.0659 48.7994 46.479 51.5974 42.6848C54.3955 39.063 56.0097 34.3203 56.4402 28.4565H44.1718V0H70Z" fill="#BC7E21"/>
</svg>
